<mxfile host="Electron" modified="2024-04-18T02:40:28.322Z" agent="Mozilla/5.0 (Windows NT 10.0; Win64; x64) AppleWebKit/537.36 (KHTML, like Gecko) draw.io/24.1.0 Chrome/120.0.6099.109 Electron/28.1.0 Safari/537.36" etag="VT93cHsggDQYbeI6RlcE" version="24.1.0" type="device">
  <diagram name="第 1 页" id="It1d-Duo_l4gzcPKU2zX">
    <mxGraphModel dx="548" dy="384" grid="1" gridSize="10" guides="1" tooltips="1" connect="1" arrows="1" fold="1" page="1" pageScale="1" pageWidth="827" pageHeight="1169" math="0" shadow="0">
      <root>
        <mxCell id="0" />
        <mxCell id="1" parent="0" />
        <mxCell id="97ce-ZtizLXiZdb-SvdW-1" value="122" style="text;html=1;align=center;verticalAlign=middle;whiteSpace=wrap;rounded=0;" vertex="1" parent="1">
          <mxGeometry x="330" y="120" width="60" height="30" as="geometry" />
        </mxCell>
        <mxCell id="97ce-ZtizLXiZdb-SvdW-2" value="" style="endArrow=none;html=1;rounded=0;" edge="1" parent="1">
          <mxGeometry width="50" height="50" relative="1" as="geometry">
            <mxPoint x="300" y="200" as="sourcePoint" />
            <mxPoint x="350" y="150" as="targetPoint" />
          </mxGeometry>
        </mxCell>
        <mxCell id="97ce-ZtizLXiZdb-SvdW-3" value="1" style="text;html=1;align=center;verticalAlign=middle;resizable=0;points=[];autosize=1;strokeColor=none;fillColor=none;" vertex="1" parent="1">
          <mxGeometry x="295" y="148" width="30" height="30" as="geometry" />
        </mxCell>
        <mxCell id="97ce-ZtizLXiZdb-SvdW-8" value="" style="group" vertex="1" connectable="0" parent="1">
          <mxGeometry x="260" y="210" width="60" height="60" as="geometry" />
        </mxCell>
        <mxCell id="97ce-ZtizLXiZdb-SvdW-4" value="剩余: {22}" style="text;html=1;align=center;verticalAlign=middle;whiteSpace=wrap;rounded=0;" vertex="1" parent="97ce-ZtizLXiZdb-SvdW-8">
          <mxGeometry y="30" width="60" height="30" as="geometry" />
        </mxCell>
        <mxCell id="97ce-ZtizLXiZdb-SvdW-7" value="结果：{1}" style="text;html=1;align=center;verticalAlign=middle;whiteSpace=wrap;rounded=0;" vertex="1" parent="97ce-ZtizLXiZdb-SvdW-8">
          <mxGeometry width="60" height="30" as="geometry" />
        </mxCell>
        <mxCell id="97ce-ZtizLXiZdb-SvdW-10" value="" style="endArrow=none;html=1;rounded=0;" edge="1" parent="1" target="97ce-ZtizLXiZdb-SvdW-4">
          <mxGeometry width="50" height="50" relative="1" as="geometry">
            <mxPoint x="230" y="320" as="sourcePoint" />
            <mxPoint x="280" y="270" as="targetPoint" />
          </mxGeometry>
        </mxCell>
        <mxCell id="97ce-ZtizLXiZdb-SvdW-11" value="2" style="text;html=1;align=center;verticalAlign=middle;resizable=0;points=[];autosize=1;strokeColor=none;fillColor=none;" vertex="1" parent="1">
          <mxGeometry x="225" y="268" width="30" height="30" as="geometry" />
        </mxCell>
        <mxCell id="97ce-ZtizLXiZdb-SvdW-12" value="" style="group" vertex="1" connectable="0" parent="1">
          <mxGeometry x="200" y="320" width="70" height="60" as="geometry" />
        </mxCell>
        <mxCell id="97ce-ZtizLXiZdb-SvdW-13" value="剩余: {2}" style="text;html=1;align=center;verticalAlign=middle;whiteSpace=wrap;rounded=0;" vertex="1" parent="97ce-ZtizLXiZdb-SvdW-12">
          <mxGeometry y="30" width="60" height="30" as="geometry" />
        </mxCell>
        <mxCell id="97ce-ZtizLXiZdb-SvdW-14" value="结果：{1,2}" style="text;html=1;align=center;verticalAlign=middle;whiteSpace=wrap;rounded=0;" vertex="1" parent="97ce-ZtizLXiZdb-SvdW-12">
          <mxGeometry width="70" height="30" as="geometry" />
        </mxCell>
        <mxCell id="97ce-ZtizLXiZdb-SvdW-15" value="" style="endArrow=none;html=1;rounded=0;entryX=0.5;entryY=1;entryDx=0;entryDy=0;" edge="1" parent="1" target="97ce-ZtizLXiZdb-SvdW-13">
          <mxGeometry width="50" height="50" relative="1" as="geometry">
            <mxPoint x="200" y="430" as="sourcePoint" />
            <mxPoint x="230" y="390" as="targetPoint" />
          </mxGeometry>
        </mxCell>
        <mxCell id="97ce-ZtizLXiZdb-SvdW-16" value="2" style="text;html=1;align=center;verticalAlign=middle;resizable=0;points=[];autosize=1;strokeColor=none;fillColor=none;" vertex="1" parent="1">
          <mxGeometry x="190" y="380" width="30" height="30" as="geometry" />
        </mxCell>
        <mxCell id="97ce-ZtizLXiZdb-SvdW-17" value="" style="group" vertex="1" connectable="0" parent="1">
          <mxGeometry x="170" y="430" width="80" height="60" as="geometry" />
        </mxCell>
        <mxCell id="97ce-ZtizLXiZdb-SvdW-18" value="剩余: {}" style="text;html=1;align=center;verticalAlign=middle;whiteSpace=wrap;rounded=0;" vertex="1" parent="97ce-ZtizLXiZdb-SvdW-17">
          <mxGeometry y="30" width="60" height="30" as="geometry" />
        </mxCell>
        <mxCell id="97ce-ZtizLXiZdb-SvdW-19" value="结果：{1,2,2}" style="text;html=1;align=center;verticalAlign=middle;whiteSpace=wrap;rounded=0;" vertex="1" parent="97ce-ZtizLXiZdb-SvdW-17">
          <mxGeometry width="80" height="30" as="geometry" />
        </mxCell>
        <mxCell id="97ce-ZtizLXiZdb-SvdW-20" value="" style="endArrow=none;html=1;rounded=0;entryX=0.614;entryY=1.074;entryDx=0;entryDy=0;entryPerimeter=0;" edge="1" parent="1" target="97ce-ZtizLXiZdb-SvdW-1">
          <mxGeometry width="50" height="50" relative="1" as="geometry">
            <mxPoint x="380" y="210" as="sourcePoint" />
            <mxPoint x="430" y="220" as="targetPoint" />
          </mxGeometry>
        </mxCell>
        <mxCell id="97ce-ZtizLXiZdb-SvdW-21" value="2" style="text;html=1;align=center;verticalAlign=middle;resizable=0;points=[];autosize=1;strokeColor=none;fillColor=none;" vertex="1" parent="1">
          <mxGeometry x="345" y="168" width="30" height="30" as="geometry" />
        </mxCell>
        <mxCell id="97ce-ZtizLXiZdb-SvdW-22" value="" style="group" vertex="1" connectable="0" parent="1">
          <mxGeometry x="350" y="210" width="60" height="60" as="geometry" />
        </mxCell>
        <mxCell id="97ce-ZtizLXiZdb-SvdW-23" value="剩余: {2}" style="text;html=1;align=center;verticalAlign=middle;whiteSpace=wrap;rounded=0;" vertex="1" parent="97ce-ZtizLXiZdb-SvdW-22">
          <mxGeometry y="30" width="60" height="30" as="geometry" />
        </mxCell>
        <mxCell id="97ce-ZtizLXiZdb-SvdW-24" value="结果：{2}" style="text;html=1;align=center;verticalAlign=middle;whiteSpace=wrap;rounded=0;" vertex="1" parent="97ce-ZtizLXiZdb-SvdW-22">
          <mxGeometry width="60" height="30" as="geometry" />
        </mxCell>
        <mxCell id="97ce-ZtizLXiZdb-SvdW-25" value="" style="endArrow=none;html=1;rounded=0;entryX=0.5;entryY=1;entryDx=0;entryDy=0;" edge="1" parent="1" target="97ce-ZtizLXiZdb-SvdW-23">
          <mxGeometry width="50" height="50" relative="1" as="geometry">
            <mxPoint x="380" y="340" as="sourcePoint" />
            <mxPoint x="420" y="310" as="targetPoint" />
          </mxGeometry>
        </mxCell>
        <mxCell id="97ce-ZtizLXiZdb-SvdW-26" value="2" style="text;html=1;align=center;verticalAlign=middle;whiteSpace=wrap;rounded=0;" vertex="1" parent="1">
          <mxGeometry x="330" y="290" width="60" height="30" as="geometry" />
        </mxCell>
        <mxCell id="97ce-ZtizLXiZdb-SvdW-27" value="" style="group" vertex="1" connectable="0" parent="1">
          <mxGeometry x="340" y="350" width="80" height="60" as="geometry" />
        </mxCell>
        <mxCell id="97ce-ZtizLXiZdb-SvdW-28" value="剩余: {}" style="text;html=1;align=center;verticalAlign=middle;whiteSpace=wrap;rounded=0;" vertex="1" parent="97ce-ZtizLXiZdb-SvdW-27">
          <mxGeometry y="30" width="60" height="30" as="geometry" />
        </mxCell>
        <mxCell id="97ce-ZtizLXiZdb-SvdW-29" value="结果：{2,2}" style="text;html=1;align=center;verticalAlign=middle;whiteSpace=wrap;rounded=0;" vertex="1" parent="97ce-ZtizLXiZdb-SvdW-27">
          <mxGeometry width="80" height="30" as="geometry" />
        </mxCell>
        <mxCell id="97ce-ZtizLXiZdb-SvdW-30" value="" style="endArrow=none;html=1;rounded=0;" edge="1" parent="1" target="97ce-ZtizLXiZdb-SvdW-1">
          <mxGeometry width="50" height="50" relative="1" as="geometry">
            <mxPoint x="460" y="200" as="sourcePoint" />
            <mxPoint x="480" y="180" as="targetPoint" />
          </mxGeometry>
        </mxCell>
        <mxCell id="97ce-ZtizLXiZdb-SvdW-31" value="2" style="text;html=1;align=center;verticalAlign=middle;whiteSpace=wrap;rounded=0;" vertex="1" parent="1">
          <mxGeometry x="384" y="178" width="60" height="30" as="geometry" />
        </mxCell>
        <mxCell id="97ce-ZtizLXiZdb-SvdW-32" value="" style="group" vertex="1" connectable="0" parent="1">
          <mxGeometry x="440" y="210" width="60" height="60" as="geometry" />
        </mxCell>
        <mxCell id="97ce-ZtizLXiZdb-SvdW-33" value="剩余: {}" style="text;html=1;align=center;verticalAlign=middle;whiteSpace=wrap;rounded=0;" vertex="1" parent="97ce-ZtizLXiZdb-SvdW-32">
          <mxGeometry y="30" width="60" height="30" as="geometry" />
        </mxCell>
        <mxCell id="97ce-ZtizLXiZdb-SvdW-34" value="结果：{2}" style="text;html=1;align=center;verticalAlign=middle;whiteSpace=wrap;rounded=0;" vertex="1" parent="97ce-ZtizLXiZdb-SvdW-32">
          <mxGeometry width="60" height="30" as="geometry" />
        </mxCell>
        <mxCell id="97ce-ZtizLXiZdb-SvdW-35" value="" style="verticalLabelPosition=bottom;verticalAlign=top;html=1;shape=mxgraph.basic.x;fillColor=#d80073;fontColor=#ffffff;strokeColor=#A50040;" vertex="1" parent="1">
          <mxGeometry x="420" y="148" width="20" height="20" as="geometry" />
        </mxCell>
        <mxCell id="97ce-ZtizLXiZdb-SvdW-38" value="去重" style="text;html=1;align=center;verticalAlign=middle;whiteSpace=wrap;rounded=0;" vertex="1" parent="1">
          <mxGeometry x="450" y="148" width="60" height="30" as="geometry" />
        </mxCell>
      </root>
    </mxGraphModel>
  </diagram>
</mxfile>
